<svg preserveAspectRatio="none" width="100%" height="100%" overflow="visible" style="display: block;" viewBox="0 0 112.001 36.0001" fill="none" xmlns="http://www.w3.org/2000/svg">
<g id="Group">
<path id="Vector" d="M0 18.2598C0.140725 11.6704 2.55924 6.77665 7.37445 3.13298C9.72642 1.35253 12.4449 0.411667 15.3925 0.116559C18.2659 -0.170927 21.0805 0.0457761 23.7848 1.07702C28.7342 2.96419 32.0963 6.48263 33.953 11.3873C36.9922 19.4119 33.9181 28.5014 26.6582 33.0696C24.5353 34.4047 22.1877 35.1713 19.6776 35.4272C17.403 35.6592 15.1329 35.6527 12.9424 34.9775C6.24865 32.9139 2.10434 28.398 0.425449 21.641C0.11018 20.3713 0.0916352 19.0297 0 18.2598ZM17.595 2.04511C16.7103 2.11154 15.8158 2.11698 14.942 2.25419C12.1537 2.69304 9.70678 3.87021 7.57517 5.7258C4.19776 8.66709 2.43488 12.4153 2.15234 16.8256C1.91343 20.5509 2.87014 24.0106 5.08248 27.052C8.69334 32.0166 13.5958 34.1401 19.6819 33.3985C23.9375 32.8802 27.3062 30.7436 29.8185 27.3134C32.5141 23.6316 33.497 19.4848 32.7258 14.9896C31.457 7.59882 25.2542 1.93404 17.595 2.04511Z" fill="var(--fill-0, white)"/>
<path id="Vector_2" d="M56.4342 10.4988C56.4342 12.0364 56.4342 13.5152 56.4342 15.0311C55.5909 15.0311 54.7847 15.0311 53.948 15.0311C53.948 10.7427 53.948 6.47182 53.948 2.19438C53.9971 2.17151 54.0451 2.13013 54.0931 2.13013C56.0153 2.15191 57.9538 2.03103 59.8552 2.23903C62.3283 2.51018 63.4573 4.43111 63.2414 6.83227C63.0995 8.40909 62.3577 9.56447 60.7443 10.1024C61.7425 11.7511 62.7134 13.3573 63.7388 15.0518C62.7646 15.0518 61.8385 15.0605 60.9134 15.0376C60.8228 15.0354 60.7214 14.8449 60.6516 14.7262C59.8956 13.4303 59.1352 12.1366 58.4 10.8298C58.2571 10.5761 58.1152 10.4694 57.8174 10.4912C57.3702 10.5228 56.9196 10.4988 56.4342 10.4988ZM56.5149 4.39299C56.4854 4.44962 56.4407 4.49536 56.4407 4.54218C56.4364 5.68124 56.4254 6.82138 56.4571 7.96043C56.4604 8.07477 56.7243 8.27623 56.8673 8.27623C57.5894 8.27623 58.3171 8.25881 59.0338 8.17823C60.0396 8.06388 60.7116 7.23736 60.6865 6.22789C60.6625 5.22823 59.9316 4.45071 58.9061 4.40171C58.112 4.36359 57.3145 4.39299 56.5149 4.39299Z" fill="var(--fill-0, white)"/>
<path id="Vector_3" d="M73.3398 25.0299C74.0096 22.5493 74.6467 20.1873 75.2892 17.8068C75.9525 17.8068 76.6026 17.8068 77.2855 17.8068C77.9575 20.2058 78.6306 22.6092 79.3441 25.1551C79.7913 23.3148 80.1993 21.6247 80.6117 19.9358C80.7568 19.3401 80.9149 18.7477 81.0589 18.152C81.1233 17.8841 81.2586 17.7687 81.552 17.7807C82.0953 17.8047 82.6396 17.7872 83.3084 17.7872C82.3855 21.1652 81.4757 24.4898 80.5539 27.8634C79.8153 27.8634 79.0451 27.8634 78.2488 27.8634C77.6063 25.6474 76.9615 23.4237 76.2939 21.1205C75.6416 23.4237 75.0099 25.6517 74.3761 27.8906C73.6267 27.8906 72.9023 27.8906 72.1256 27.8906C71.1754 24.5519 70.2242 21.2098 69.2598 17.8199C70.0431 17.8199 70.7762 17.8199 71.5725 17.8199C72.1496 20.1742 72.7311 22.546 73.3398 25.0299Z" fill="var(--fill-0, white)"/>
<path id="Vector_4" d="M45.0965 10.7961C45.0965 12.2455 45.0965 13.6176 45.0965 15.03C44.1823 15.03 43.3042 15.03 42.3911 15.03C42.3911 10.7362 42.3911 6.45004 42.3911 2.08222C44.6438 2.25754 46.8899 1.847 49.1121 2.40564C51.0244 2.88587 52.147 4.9549 51.9091 6.93028C51.6015 9.48716 49.7819 10.721 47.4572 10.7917C46.6968 10.8157 45.9343 10.7961 45.0965 10.7961ZM45.0867 8.49185C45.535 8.49185 45.9125 8.50165 46.2889 8.48967C46.7579 8.47333 47.2325 8.47551 47.695 8.40473C48.6092 8.26534 49.1808 7.50416 49.2201 6.44351C49.2539 5.51789 48.7248 4.66959 47.8728 4.53238C47.0579 4.40062 46.2158 4.42457 45.3845 4.41586C45.2863 4.41477 45.102 4.63257 45.0998 4.75126C45.079 5.96219 45.0867 7.1742 45.0867 8.49185Z" fill="var(--fill-0, white)"/>
<path id="Vector_5" d="M65.9544 15.0267C65.9544 10.7068 65.9544 6.45004 65.9544 2.15191C68.6489 2.15191 71.3227 2.15191 74.039 2.15191C74.039 2.88696 74.039 3.60132 74.039 4.38973C72.2652 4.38973 70.4805 4.38973 68.6315 4.38973C68.6315 5.39702 68.6173 6.33461 68.6522 7.27003C68.6555 7.36586 68.9522 7.52594 69.1147 7.52811C70.3485 7.54989 71.5834 7.54009 72.8183 7.54009C72.9972 7.54009 73.1761 7.54009 73.3921 7.54009C73.3921 8.27297 73.3921 8.96772 73.3921 9.72891C72.1136 9.72891 70.8493 9.72455 69.5849 9.73C68.4515 9.73544 68.6467 9.61021 68.6326 10.6763C68.6227 11.3798 68.6304 12.0822 68.6304 12.839C70.4544 12.839 72.226 12.839 74.039 12.839C74.039 13.5882 74.039 14.2851 74.039 15.0256C71.3576 15.0267 68.6664 15.0267 65.9544 15.0267Z" fill="var(--fill-0, white)"/>
<path id="Vector_6" d="M86.6149 11.5976C87.4745 11.5181 88.261 11.4451 89.0377 11.3732C89.4305 13.0807 91.3275 13.8136 92.7522 12.8651C93.5606 12.3272 93.6479 11.0542 92.8395 10.4999C92.2853 10.1198 91.6232 9.88572 90.9905 9.63308C90.3032 9.35866 89.5712 9.18769 88.8992 8.88387C87.3949 8.20327 86.7196 6.93136 86.881 5.21952C87.0316 3.6231 87.9654 2.46553 89.5232 2.08984C91.3614 1.64663 93.1384 1.73701 94.6526 3.04704C95.258 3.57083 95.6028 4.26232 95.6857 5.07468C95.7206 5.41662 95.6148 5.58214 95.2493 5.57561C94.6155 5.56363 93.9817 5.57234 93.3457 5.57234C92.9846 4.27321 91.7813 3.75268 90.4199 4.23074C89.8876 4.41804 89.5156 4.7676 89.4414 5.35128C89.365 5.94803 89.5799 6.47073 90.1123 6.72555C90.8737 7.08926 91.6734 7.38002 92.4763 7.64572C93.4461 7.96697 94.417 8.28712 95.1206 9.07009C96.8104 10.9507 95.8929 14.2427 93.4384 15.03C91.7759 15.5625 90.1036 15.5146 88.5207 14.7153C87.2803 14.088 86.6847 13.0274 86.6149 11.5976Z" fill="var(--fill-0, white)"/>
<path id="Vector_7" d="M84.8204 5.52225C84.1167 5.56798 83.4491 5.63332 82.7826 5.63986C82.6342 5.64094 82.392 5.46344 82.3484 5.32188C81.9197 3.89425 80.0117 3.80713 79.1662 4.38973C78.4343 4.89392 78.3481 6.0297 79.0692 6.54696C79.6124 6.93681 80.268 7.20361 80.9106 7.41704C82.08 7.8058 83.2702 8.10962 84.1691 9.04722C85.5982 10.5369 85.3233 13.4063 83.5636 14.492C81.6382 15.6801 79.5961 15.6953 77.6128 14.675C76.4434 14.0739 75.8859 12.9729 75.8074 11.591C76.607 11.5235 77.3772 11.4495 78.1484 11.4037C78.2412 11.3983 78.4048 11.5311 78.4321 11.6281C78.8052 12.9773 79.7411 13.4913 81.2106 13.1341C82.1455 12.9076 82.5633 12.4829 82.6102 11.7239C82.6527 11.0389 82.32 10.5347 81.7331 10.2886C80.8037 9.89988 79.8284 9.6211 78.8793 9.27263C77.5244 8.77607 76.4063 8.00399 76.1117 6.4838C75.6492 4.09897 76.8754 2.28803 79.2186 1.97223C80.4415 1.8078 81.6426 1.80235 82.7924 2.31852C83.9171 2.82598 84.9905 4.03364 84.8204 5.52225Z" fill="var(--fill-0, white)"/>
<path id="Vector_8" d="M103.444 27.9037C103.444 24.5127 103.444 21.1968 103.444 17.895C103.488 17.8569 103.514 17.8134 103.541 17.8134C105.011 17.8134 106.49 17.7175 107.948 17.8449C110.095 18.0333 111.362 19.2257 111.832 21.3383C112.205 23.0142 111.974 24.6161 110.992 26.0579C110.214 27.1991 109.047 27.7708 107.73 27.8776C106.324 27.9919 104.903 27.9037 103.444 27.9037ZM105.508 19.6298C105.508 21.8011 105.508 23.9094 105.508 26.0122C107.239 26.3312 108.619 25.9142 109.309 24.8796C110.02 23.8114 110.025 21.7554 109.262 20.6882C108.308 19.3542 106.876 19.6766 105.508 19.6298Z" fill="var(--fill-0, white)"/>
<path id="Vector_9" d="M49.7383 22.9783C49.7219 21.1423 50.2193 19.5753 51.7041 18.4874C54.5917 16.3727 58.8821 18.2097 59.3665 21.7445C59.6065 23.4977 59.3894 25.1475 58.1916 26.5414C57.1247 27.7828 55.712 28.1901 54.1324 28.0823C51.5557 27.9048 50.2423 26.1875 49.8103 24.0564C49.7361 23.6872 49.7579 23.2996 49.7383 22.9783ZM51.7848 22.8607C51.8437 23.2898 51.8437 23.7362 51.9735 24.1435C52.28 25.1116 52.7884 25.9762 53.8913 26.1428C55.0542 26.3182 56.1887 26.1722 56.8029 24.9766C57.5633 23.4967 57.5153 21.9928 56.6033 20.5946C55.6618 19.1484 53.4942 19.155 52.483 20.5586C51.9866 21.2436 51.7771 22.0135 51.7848 22.8607Z" fill="var(--fill-0, white)"/>
<path id="Vector_10" d="M66.6122 24.0215C67.3551 25.276 68.1057 26.5425 68.9129 27.9059C68.1329 27.9059 67.4369 27.9276 66.7442 27.8874C66.6046 27.8797 66.4453 27.6587 66.3515 27.5019C65.8977 26.7407 65.4024 25.9947 65.0413 25.1911C64.689 24.407 64.1752 24.1402 63.3101 24.3787C63.3101 25.5003 63.3101 26.6688 63.3101 27.8721C62.5912 27.8721 61.9334 27.8721 61.2505 27.8721C61.2505 24.5203 61.2505 21.1913 61.2505 17.7709C63.0603 17.9168 64.8832 17.4649 66.6362 18.1586C67.9268 18.6693 68.4504 19.6994 68.4755 21.0247C68.4995 22.3511 68.0391 23.3965 66.7148 23.9094C66.6864 23.9214 66.6679 23.9606 66.6122 24.0215ZM63.3275 22.5612C63.8784 22.5612 64.3661 22.5689 64.8537 22.5569C65.0141 22.5536 65.1755 22.5101 65.3326 22.4687C66.021 22.2868 66.3646 21.8164 66.358 21.0748C66.3515 20.3376 66.045 19.8748 65.3424 19.7539C64.6792 19.6396 63.9963 19.6406 63.2915 19.5884C63.2915 20.551 63.2904 21.4004 63.2926 22.2487C63.2926 22.3358 63.3112 22.4219 63.3275 22.5612Z" fill="var(--fill-0, white)"/>
<path id="Vector_11" d="M99.41 24.0771C100.162 25.3141 100.927 26.5752 101.735 27.9048C100.973 27.9048 100.288 27.9222 99.6052 27.8895C99.4754 27.883 99.3194 27.7066 99.2365 27.5705C98.7194 26.7211 98.1685 25.8858 97.7311 24.9962C97.4507 24.4255 97.0886 24.2252 96.4984 24.3188C96.3587 24.3406 96.2158 24.3373 96.0195 24.3493C96.0195 25.5221 96.0195 26.6753 96.0195 27.8678C95.3409 27.8678 94.7159 27.8678 94.0504 27.8678C94.0504 24.5301 94.0504 21.1881 94.0504 17.6925C95.7391 17.7916 97.4289 17.7154 99.0434 18.0246C101.76 18.5462 101.871 21.9645 100.569 23.2614C100.254 23.5729 99.8387 23.7798 99.41 24.0771ZM95.9966 22.5558C96.65 22.5558 97.2489 22.6004 97.8391 22.5449C98.6093 22.4719 99.1122 21.9623 99.1514 21.3253C99.2103 20.3942 98.9267 19.8922 98.0649 19.7147C97.4715 19.5927 96.8398 19.6417 96.2268 19.6494C96.1482 19.6504 96.0097 19.8682 96.0064 19.988C95.9878 20.8222 95.9966 21.6552 95.9966 22.5558Z" fill="var(--fill-0, white)"/>
<path id="Vector_12" d="M86.857 17.7829C87.5007 17.7829 88.1345 17.7709 88.7672 17.7938C88.8872 17.7981 89.0705 17.9179 89.1108 18.0268C90.3043 21.2414 91.4824 24.4604 92.6628 27.6794C92.6802 27.7284 92.6868 27.7806 92.7152 27.9059C92.0453 27.9059 91.4028 27.92 90.7614 27.8928C90.6501 27.8884 90.4974 27.7273 90.4472 27.6042C90.2486 27.1207 90.0643 26.6307 89.9148 26.1309C89.8286 25.8423 89.6977 25.7258 89.3857 25.7312C88.297 25.7486 87.2072 25.7377 86.0771 25.7377C85.8032 26.4488 85.5316 27.1545 85.2491 27.8874C84.5902 27.8874 83.9029 27.8874 83.1698 27.8874C84.4004 24.5116 85.6243 21.1597 86.857 17.7829ZM89.2319 24.0684C88.7967 22.8313 88.3898 21.6737 87.9829 20.5162C87.9447 20.514 87.9065 20.5107 87.8694 20.5085C87.4658 21.6835 87.0621 22.8585 86.6476 24.0684C87.5334 24.0684 88.3276 24.0684 89.2319 24.0684Z" fill="var(--fill-0, white)"/>
<path id="Vector_13" d="M48.4237 19.6406C47.1234 19.6406 45.8601 19.6406 44.5652 19.6406C44.5652 20.4726 44.5652 21.2621 44.5652 22.1191C45.6627 22.1191 46.7568 22.1191 47.8805 22.1191C47.8805 22.8651 47.8805 23.5446 47.8805 24.2731C46.7743 24.2731 45.679 24.2731 44.5391 24.2731C44.5391 25.4927 44.5391 26.6655 44.5391 27.8721C43.7983 27.8721 43.1034 27.8721 42.378 27.8721C42.378 24.5235 42.378 21.1935 42.378 17.8232C44.3852 17.8232 46.3859 17.8232 48.4226 17.8232C48.4237 18.4134 48.4237 18.9851 48.4237 19.6406Z" fill="var(--fill-0, white)"/>
<path id="Vector_14" d="M85.0451 35.2792C84.6109 35.4001 84.3491 35.2313 84.1145 34.8905C83.6302 34.1848 83.1066 33.5064 82.4793 32.8617C82.4793 33.6654 82.4793 34.4679 82.4793 35.2825C82.2109 35.2825 82.0015 35.2825 81.7517 35.2825C81.7517 33.9452 81.7517 32.632 81.7517 31.3187C82.1324 31.2348 82.3811 31.2947 82.6178 31.6639C83.0727 32.3739 83.6225 33.024 84.2094 33.8026C84.2094 32.9042 84.2094 32.1245 84.2094 31.3154C84.5105 31.3154 84.7571 31.3154 85.0451 31.3154C85.0451 32.62 85.0451 33.9333 85.0451 35.2792Z" fill="var(--fill-0, white)"/>
<path id="Vector_15" d="M45.5045 32.7899C45.5045 33.6011 45.5045 34.4124 45.5045 35.2651C45.258 35.2651 45.0354 35.2651 44.7801 35.2651C44.7801 33.9572 44.7801 32.6439 44.7801 31.3241C45.1478 31.2305 45.4096 31.2675 45.6529 31.629C46.1132 32.314 46.6478 32.9489 47.2477 33.7296C47.2477 32.8323 47.2477 32.0864 47.2477 31.3121C47.5161 31.3121 47.7267 31.3121 47.9797 31.3121C47.9797 32.6124 47.9797 33.9224 47.9797 35.4023C47.7114 35.2455 47.4419 35.1703 47.3001 34.9917C46.7165 34.261 46.1721 33.4988 45.6136 32.7485C45.5765 32.7626 45.5405 32.7757 45.5045 32.7899Z" fill="var(--fill-0, white)"/>
<path id="Vector_16" d="M80.4033 33.2614C80.4044 34.4974 79.6037 35.3217 78.395 35.3271C77.2997 35.3326 76.5045 34.4647 76.499 33.2603C76.4946 32.1517 77.3968 31.1956 78.4473 31.1945C79.5873 31.1924 80.4011 32.0537 80.4033 33.2614ZM79.6386 33.2527C79.6266 32.4022 79.175 31.8501 78.5052 31.8675C77.7743 31.886 77.2343 32.4664 77.2441 33.2222C77.2561 34.089 77.7481 34.6672 78.4692 34.6596C79.1815 34.6531 79.6506 34.0901 79.6386 33.2527Z" fill="var(--fill-0, white)"/>
<path id="Vector_17" d="M64.3224 33.7743C64.605 34.2872 64.8646 34.7587 65.1319 35.2466C64.5897 35.423 64.2668 35.2781 64.0061 34.7674C63.7857 34.3351 63.657 33.6393 62.7908 33.9638C62.7908 34.3656 62.7908 34.8055 62.7908 35.2749C62.5279 35.2749 62.3381 35.2749 62.1156 35.2749C62.1156 33.9703 62.1156 32.6701 62.1156 31.3056C62.7243 31.3056 63.3526 31.2718 63.9755 31.3154C64.5341 31.3546 64.9126 31.6726 65.0261 32.2497C65.1526 32.9031 64.9312 33.3964 64.3224 33.7743ZM62.8028 33.1579C63.3057 33.1165 63.8337 33.3627 64.185 32.8868C64.3017 32.7289 64.2821 32.2378 64.2003 32.204C63.7748 32.0298 63.309 31.9546 62.8039 31.8316C62.8028 32.3565 62.8028 32.7256 62.8028 33.1579Z" fill="var(--fill-0, white)"/>
<path id="Vector_18" d="M60.5512 32.1005C60.3145 32.3619 60.1072 32.4207 59.7832 32.1604C59.2225 31.7085 58.736 31.7303 58.3182 32.1354C57.8054 32.632 57.7138 33.551 58.1207 34.1304C58.4763 34.6367 59.1658 34.848 59.7003 34.5529C59.8858 34.4505 59.9829 34.1881 60.1214 33.9986C59.9403 33.9278 59.7636 33.844 59.5781 33.7917C59.4614 33.759 59.3305 33.7754 59.1734 33.7688C59.1734 33.5608 59.1734 33.3735 59.1734 33.1634C59.6763 33.1634 60.1596 33.1634 60.7061 33.1634C60.7061 33.612 60.7258 34.0585 60.6952 34.5017C60.6854 34.64 60.5676 34.799 60.4552 34.897C59.8792 35.4001 58.7971 35.497 58.1556 35.1213C57.4182 34.6901 56.9862 33.8396 57.1116 33.0654C57.2785 32.0319 57.8251 31.3862 58.6771 31.2141C59.4352 31.0617 60.117 31.3807 60.5512 32.1005Z" fill="var(--fill-0, white)"/>
<path id="Vector_19" d="M53.3928 35.2771C53.3928 33.9289 53.3928 32.632 53.3928 31.3089C54.2829 31.3089 55.1447 31.3089 56.0458 31.3089C56.0458 31.506 56.0458 31.6911 56.0458 31.9318C55.4153 31.9318 54.7891 31.9318 54.1422 31.9318C54.1422 32.2682 54.1422 32.5514 54.1422 32.9151C54.5327 32.9151 54.9255 32.9358 55.3138 32.9096C55.7709 32.8781 55.9105 33.0621 55.7655 33.5456C55.2495 33.5456 54.716 33.5456 54.152 33.5456C54.152 33.9572 54.152 34.3079 54.152 34.6945C54.7738 34.6945 55.3847 34.6945 56.0404 34.6945C56.0578 34.8981 56.072 35.0701 56.0894 35.2771C55.1862 35.2771 54.3091 35.2771 53.3928 35.2771Z" fill="var(--fill-0, white)"/>
<path id="Vector_20" d="M66.0308 35.2368C66.2588 34.6335 66.4868 34.0324 66.7137 33.4302C66.8915 32.9586 67.0726 32.4893 67.2438 32.0156C67.5177 31.2577 67.5155 31.2566 68.398 31.3121C68.8682 32.6026 69.3482 33.9148 69.8347 35.2498C69.3144 35.399 68.9893 35.3184 68.8846 34.7467C68.8136 34.3591 68.6456 34.0531 68.1253 34.1173C67.6333 34.1783 67.0649 34.0215 66.9766 34.7718C66.9089 35.3446 66.5489 35.399 66.0308 35.2368ZM67.4664 33.4269C67.8133 33.4269 68.0893 33.4269 68.3882 33.4269C68.2551 32.9739 68.1329 32.5557 67.966 31.9851C67.7773 32.5296 67.63 32.9532 67.4664 33.4269Z" fill="var(--fill-0, white)"/>
<path id="Vector_21" d="M86.5909 34.3111C87.0938 34.4396 87.5149 34.6041 87.9447 34.6324C88.1465 34.6455 88.3647 34.3928 88.5752 34.261C88.4105 34.101 88.2708 33.8941 88.0756 33.7928C87.7407 33.6196 87.3643 33.5293 87.0185 33.3725C86.6574 33.208 86.3901 32.9706 86.3912 32.5122C86.3934 32.0352 86.5625 31.6661 86.9618 31.4134C87.4963 31.0758 88.4988 31.1183 88.957 31.5582C89.089 31.6857 89.0301 32.0102 89.0541 32.2073C88.4759 32.082 88.0374 31.9426 87.5923 31.9154C87.4309 31.9056 87.253 32.1659 87.0829 32.3031C87.2356 32.4588 87.3632 32.669 87.5487 32.7583C87.8552 32.9053 88.2065 32.9554 88.5272 33.0784C89.0923 33.2951 89.3257 33.6719 89.2941 34.2502C89.2668 34.7489 88.9308 35.2237 88.3974 35.264C87.8574 35.3043 87.2792 35.2411 86.7621 35.0799C86.2342 34.9155 86.2396 34.7053 86.5909 34.3111Z" fill="var(--fill-0, white)"/>
<path id="Vector_22" d="M103.666 34.3656C102.958 35.4349 102.21 35.4535 101.275 35.2476C100.445 35.0647 99.9641 34.1195 100.029 33.0708C100.082 32.1986 100.699 31.4319 101.492 31.2544C102.348 31.0628 103.072 31.3862 103.516 32.1866C103.355 32.3009 103.189 32.4174 103.03 32.5296C102.32 31.7619 101.747 31.6639 101.19 32.1822C100.687 32.6516 100.642 33.7525 101.104 34.2806C101.602 34.8502 102.299 34.7827 103.117 34.0596C103.284 34.1532 103.462 34.2523 103.666 34.3656Z" fill="var(--fill-0, white)"/>
<path id="Vector_23" d="M73.3867 31.9198C73.0169 31.9198 72.6601 31.9198 72.2543 31.9198C72.2543 33.0577 72.2543 34.1543 72.2543 35.2792C71.9958 35.2792 71.7863 35.2792 71.5278 35.2792C71.5278 34.1859 71.5278 33.0904 71.5278 31.9525C71.0893 31.9525 70.6965 31.9525 70.2384 31.9525C70.2165 31.7314 70.1969 31.5463 70.174 31.3187C71.2627 31.3187 72.3067 31.3187 73.3856 31.3187C73.3867 31.506 73.3867 31.6911 73.3867 31.9198Z" fill="var(--fill-0, white)"/>
<path id="Vector_24" d="M51.1826 35.2836C50.875 35.2836 50.6655 35.2836 50.4124 35.2836C50.4124 34.1783 50.4124 33.098 50.4124 31.9535C50.0415 31.9372 49.7077 31.922 49.3324 31.9056C49.3106 31.7183 49.2888 31.5299 49.2637 31.31C50.2717 31.31 51.2415 31.31 52.231 31.31C52.231 31.5103 52.231 31.6824 52.231 31.9056C51.8862 31.9056 51.5688 31.9056 51.1815 31.9056C51.1826 33.0479 51.1826 34.1402 51.1826 35.2836Z" fill="var(--fill-0, white)"/>
<path id="Vector_25" d="M96.9206 31.3056C97.1573 31.3056 97.3689 31.3056 97.6296 31.3056C97.6296 32.4403 97.6296 33.5543 97.6296 34.7293C98.21 34.7293 98.7423 34.7293 99.3042 34.7293C99.3042 34.9417 99.3042 35.0941 99.3042 35.2781C98.5133 35.2781 97.7409 35.2781 96.9206 35.2781C96.9206 33.9736 96.9206 32.6625 96.9206 31.3056Z" fill="var(--fill-0, white)"/>
<path id="Vector_26" d="M93.6075 31.3078C93.8508 31.3078 94.0613 31.3078 94.3209 31.3078C94.3209 32.4436 94.3209 33.5565 94.3209 34.7239C94.8849 34.7239 95.4009 34.7239 95.9497 34.7239C95.9627 34.9297 95.9715 35.0832 95.9835 35.2738C95.186 35.2738 94.418 35.2738 93.6064 35.2738C93.6075 33.9736 93.6075 32.6668 93.6075 31.3078Z" fill="var(--fill-0, white)"/>
<path id="Vector_27" d="M42.3965 35.2814C42.3965 33.942 42.3965 32.6472 42.3965 31.3176C42.6627 31.3176 42.9082 31.3176 43.1896 31.3176C43.1896 32.6232 43.1896 33.9354 43.1896 35.2814C42.9431 35.2814 42.6987 35.2814 42.3965 35.2814Z" fill="var(--fill-0, white)"/>
<path id="Vector_28" d="M74.5234 35.2705C74.5234 33.9398 74.5234 32.645 74.5234 31.3154C74.7678 31.3154 74.9947 31.3154 75.2739 31.3154C75.2739 32.6156 75.2739 33.9235 75.2739 35.2705C75.0601 35.2705 74.8168 35.2705 74.5234 35.2705Z" fill="var(--fill-0, white)"/>
<path id="Vector_29" d="M90.4232 36.0001C90.3501 35.6277 90.2377 35.2803 90.2355 34.9329C90.2345 34.7783 90.457 34.6215 90.5781 34.4658C90.7134 34.5866 90.9294 34.6857 90.9708 34.8328C91.1137 35.3413 90.9381 35.6582 90.4232 36.0001Z" fill="var(--fill-0, white)"/>
<path id="Vector_30" d="M10.3853 22.0734C9.88678 22.4545 9.38824 22.8346 8.85698 23.2408C8.25807 22.4055 7.92208 21.481 7.71481 20.5129C7.62536 20.0958 7.44863 19.9358 7.02209 19.9619C6.51592 19.9935 6.00429 19.9434 5.49702 19.9728C5.10102 19.9956 4.88612 19.8094 4.87739 19.4588C4.84903 18.2489 4.84685 17.0369 4.85448 15.826C4.85666 15.5015 5.06502 15.3665 5.39993 15.3665C5.99883 15.3676 6.59664 15.3262 7.19554 15.3186C7.48027 15.3153 7.61663 15.2499 7.71699 14.9265C7.98426 14.0662 8.31262 13.2234 8.67043 12.3958C8.82207 12.0451 8.79807 11.8361 8.4948 11.6117C8.20462 11.3972 7.96244 11.1162 7.66899 10.905C7.23482 10.5925 7.19009 10.2353 7.53045 9.85849C8.28316 9.02653 9.04788 8.20545 9.83005 7.40071C10.1388 7.08273 10.513 7.0664 10.8369 7.40506C11.162 7.74373 11.4849 8.08893 11.7751 8.45809C11.9671 8.70311 12.1373 8.7336 12.4209 8.61381C13.2347 8.27188 14.0551 7.94301 14.8885 7.65117C15.2234 7.53465 15.338 7.37566 15.3205 7.02719C15.2933 6.48489 15.3336 5.93932 15.3227 5.39484C15.314 4.96034 15.4743 4.6881 15.9358 4.6783C16.9863 4.65543 18.0369 4.63583 19.0874 4.63039C19.4779 4.62821 19.6187 4.89065 19.6263 5.24238C19.6394 5.84131 19.659 6.43915 19.6525 7.03808C19.6492 7.3321 19.7321 7.45298 20.043 7.56079C21.2135 7.96588 22.3623 8.43522 23.5993 8.9111C23.8306 8.68133 24.1819 8.34375 24.519 7.9931C24.7513 7.75135 24.988 7.71977 25.2237 7.96043C26.0604 8.81527 26.9047 9.66357 27.7076 10.5489C27.82 10.672 27.8135 11.1064 27.7 11.1979C26.7771 11.9482 25.816 12.6517 24.7971 13.4227C23.2535 10.9366 21.0543 9.61892 18.2398 9.40766C16.1311 9.24977 14.222 9.86938 12.5977 11.2349C9.45479 13.88 8.33553 18.2751 10.3853 22.0734Z" fill="var(--fill-0, white)"/>
<path id="Vector_31" d="M22.8881 27.2764C21.9553 27.5672 20.9921 27.8536 20.0408 28.1781C19.8892 28.2304 19.7059 28.4471 19.6939 28.6006C19.6492 29.1418 19.6579 29.6885 19.6743 30.2319C19.6874 30.6533 19.4965 30.931 19.0961 30.9364C18.0641 30.9484 17.0311 30.9147 15.9991 30.8798C15.53 30.8635 15.338 30.5793 15.35 30.1208C15.3642 29.5948 15.3871 29.0667 15.3413 28.5451C15.326 28.373 15.1405 28.1465 14.9747 28.0692C14.2231 27.7197 13.4398 27.4376 12.6915 27.0815C12.3904 26.9378 12.2115 26.9519 11.9944 27.1937C11.7402 27.4768 11.486 27.7893 11.1653 27.9701C10.9493 28.091 10.5031 28.1269 10.3548 27.9897C9.56933 27.2677 8.83516 26.4902 8.10862 25.7083C7.88935 25.472 7.79553 25.1628 8.13044 24.9058C9.01843 24.223 9.90751 23.5402 10.562 23.0371C11.2057 23.5511 11.7566 23.99 12.3053 24.4299C15.2245 26.7657 19.2597 26.9149 22.3186 24.7816C24.8189 23.0382 25.7953 20.551 25.6829 17.5988C25.6491 16.7255 25.4102 15.8554 25.216 14.9962C25.1419 14.6706 25.1626 14.4659 25.4375 14.2557C25.9535 13.8615 26.4422 13.4314 27.0716 12.9087C27.2778 13.6317 27.496 14.2514 27.6258 14.8884C27.8331 15.9011 27.8091 15.9066 28.8444 15.9142C28.972 15.9153 29.0985 15.9153 29.2262 15.9164C30.3672 15.9273 30.4381 15.9719 30.4458 17.0968C30.4523 18.054 30.3989 19.0123 30.3618 19.9695C30.3454 20.4062 30.1142 20.6218 29.6625 20.612C29.1356 20.6011 28.6087 20.6316 28.0829 20.612C27.7687 20.6 27.6531 20.7503 27.5342 21.0127C27.1262 21.9155 26.7073 22.815 26.2437 23.6905C26.0789 24.0019 26.128 24.1729 26.3582 24.3885C26.728 24.7359 27.0716 25.1105 27.4371 25.4622C27.6476 25.6648 27.6749 25.8597 27.472 26.0721C26.7193 26.8561 25.9742 27.6467 25.2062 28.4144C24.8364 28.7847 24.4437 28.7563 24.064 28.3785C23.6659 27.9821 23.2459 27.6097 22.8881 27.2764Z" fill="var(--fill-0, white)"/>
<path id="Vector_32" d="M13.8184 17.3081C14.2056 17.356 14.4696 17.3898 14.8569 17.4377C14.3464 18.5397 13.5511 19.3172 12.7155 20.171C11.9857 19.3444 11.4293 18.5125 11.1402 17.4703C11.2842 17.4442 11.3704 17.4083 11.4522 17.417C11.9169 17.4703 12.0806 17.2907 12.1809 16.8072C12.6053 14.7621 15.0205 12.8368 17.1783 12.7595C17.6136 12.7442 18.0499 12.7388 18.4841 12.766C18.8801 12.7911 19.0579 12.6604 19.0285 12.2466C19.011 12.0048 19.0547 11.7598 19.0765 11.4342C20.3834 12.0789 21.3706 12.9664 22.3612 13.9661C22.1681 14.124 21.9979 14.2721 21.8179 14.4071C21.123 14.9287 20.4314 15.4547 19.7245 15.9599C19.5783 16.0645 19.3623 16.1429 19.1965 16.1178C19.1158 16.1059 19.0339 15.8271 19.0252 15.6659C18.9696 14.6445 18.975 14.6238 17.9081 14.6434C16.4234 14.6695 15.1394 15.153 14.2525 16.413C14.0835 16.6569 13.9885 16.9531 13.8184 17.3081Z" fill="var(--fill-0, white)"/>
<path id="Vector_33" d="M16.9012 19.8094C16.9394 20.282 16.9296 20.5695 16.9972 20.8385C17.0354 20.992 17.1783 21.2109 17.3081 21.2371C18.5834 21.4951 20.7925 20.4508 21.4055 19.3259C21.4372 19.2682 21.4328 19.192 21.4448 19.1277C20.415 18.7009 20.4172 18.6584 21.2812 17.9081C21.747 17.5041 22.1768 17.0609 22.6252 16.6373C22.7517 16.5175 22.8848 16.4064 23.0615 16.2507C23.6702 17.185 23.9931 18.1444 24.099 19.1757C24.1448 19.6221 23.8546 19.6515 23.4935 19.6308C23.3288 19.6221 23.0692 19.7147 22.9972 19.8432C21.7383 22.0886 19.7823 23.085 17.2601 23.097C17.1903 23.097 17.1205 23.121 16.9601 23.1493C16.9601 23.4477 16.9623 23.7482 16.9591 24.0499C16.9558 24.4419 16.6972 24.5747 16.4267 24.3776C15.5693 23.7515 14.7424 23.0829 13.9318 22.3979C13.8424 22.3228 13.8598 21.9286 13.9569 21.8578C14.8733 21.1881 15.8169 20.5554 16.9012 19.8094Z" fill="var(--fill-0, white)"/>
</g>
</svg>
